<svg xmlns="http://www.w3.org/2000/svg" viewBox="0 0 1078.13172 617.02975">
  <defs>
    <style>
      .a {
        fill: #ed1c24;
      }

      .b {
        fill: none;
        stroke: #231f20;
        stroke-miterlimit: 10;
        stroke-width: 4px;
      }

      .c {
        fill: #231f20;
      }
    </style>
  </defs>
  <title>Union Logo Subheaders</title>
  <g>
    <path class="a" d="M79.7249,356.53794H194.6357a59.66946,59.66946,0,0,0-114.9108,0"/>
    <path class="a" d="M218.624,356.53794H333.5309a59.66691,59.66691,0,0,0-114.90693,0"/>
    <polygon class="a" points="351.882 167.08 351.882 42.776 38.121 42.776 38.121 356.537 61.375 356.537 61.375 303.574 61.375 299.505 61.375 282.029 351.882 282.029 351.882 276.156 138.251 276.156 138.251 234.267 351.882 234.267 351.882 228.395 61.375 228.395 61.375 167.08 351.882 167.08"/>
    <path class="a" d="M1038.11932,167.0814V42.778H724.35506V356.53841H880.68634v-13.684h157.433v-5.87665h-35.6591V320.96388h35.6591v-5.87665h-35.6591V299.07335h35.6591V293.1967h-35.6591V277.18281h35.6591v-5.87665h-35.6591V255.29227h35.6591v-5.8729h-35.6591V233.40173h35.6591v-5.8729h-35.6591V211.51494h35.6591v-5.8804h-35.6591V189.4747h35.6591V183.602h-157.433V167.0814h157.433Zm-157.433,153.88248H915.1785v16.01389H880.68634V320.96388Zm0-21.89054H915.1785v16.01389H880.68634V299.07335Zm0-21.89054H915.1785V293.1967H880.68634V277.18281Zm0-21.89054H915.1785v16.01389H880.68634V255.29227Zm0-21.89054H915.1785v16.01389H880.68634V233.40173Zm0-21.88679H915.1785v16.01389H880.68634V211.51494Zm40.54147,43.77733H955.72v16.01389H921.22781V255.29227Zm0-21.89054H955.72v16.01389H921.22781V233.40173Zm0,43.78108H955.72V293.1967H921.22781V277.18281Zm34.49192-49.654H921.22758V211.51494h34.49216v16.01389Zm-34.49192,71.54451H955.72v16.01389H921.22781V299.07335Zm40.54522,0h34.49591v16.01389H961.773V299.07335Zm0-21.89054h34.49591V293.1967H961.773V277.18281Zm0-21.89054h34.49591v16.01389H961.773V255.29227Zm0-21.89054h34.49591v16.01389H961.773V233.40173Zm0-21.88679h34.49591v16.01389H961.773V211.51494ZM921.22781,320.96388H955.72v16.01389H921.22781V320.96388Zm40.54522,0h34.49591v16.01389H961.773V320.96388Zm34.49591-115.32934H961.773V189.4747h34.49591v16.15985Zm-40.5492,0H921.22758V189.4747h34.49216v16.15985Zm-40.54123,0H880.68634V189.4747H915.1785v16.15985Z"/>
    <path d="M94.20954,456.42807H85.101a4.48215,4.48215,0,0,1-4.1301-2.17247L61.26819,427.13714A5.89584,5.89584,0,0,0,59.32988,425.31a7.05333,7.05333,0,0,0-3.2013-.55665H48.34432v31.67472H38.11875V380.5309H59.57166a46.71431,46.71431,0,0,1,12.44418,1.45862,23.75444,23.75444,0,0,1,8.65941,4.20694,16.902,16.902,0,0,1,5.06288,6.64813,22.29611,22.29611,0,0,1,1.639,8.7133,21.72183,21.72183,0,0,1-1.27436,7.51941,19.73924,19.73924,0,0,1-3.681,6.27586,21.97961,21.97961,0,0,1-5.87665,4.7404,28.75033,28.75033,0,0,1-7.865,2.96339,10.22957,10.22957,0,0,1,3.38943,3.23562Zm-35.06-39.14048a26.04485,26.04485,0,0,0,7.861-1.08612,16.13047,16.13047,0,0,0,5.71933-3.07069,12.77753,12.77753,0,0,0,3.4699-4.74063,15.44211,15.44211,0,0,0,1.16683-6.09148q0-6.78237-4.44872-10.22182-4.45053-3.44284-13.34616-3.443H48.34432v28.6537H59.14949Z"/>
    <polygon points="151.305 448.059 151.248 456.427 104.484 456.427 104.484 380.529 151.248 380.529 151.248 388.897 114.76 388.897 114.76 414.108 144.316 414.108 144.316 422.157 114.76 422.157 114.76 448.059 151.305 448.059"/>
    <path d="M227.148,380.53v75.89718h-5.13586A4.38794,4.38794,0,0,1,219.97,456.005a5.23442,5.23442,0,0,1-1.61594-1.43168L174.45024,397.373c0.069,0.883.12663,1.74655,0.15732,2.59487q0.05183,1.26686.05377,2.38379v54.07552h-9.005V380.53h5.297a7.16178,7.16178,0,0,1,1.16683.08083,3.15351,3.15351,0,0,1,.84446.261,3.40943,3.40943,0,0,1,.74466.53345,8.11544,8.11544,0,0,1,.79456.87527l43.90782,57.14644c-0.073-.92142-0.13822-1.80793-0.18813-2.67546-0.05377-.86753-0.08059-1.68517-0.08059-2.46438V380.53h9.005Z"/>
    <path d="M285.35429,392.39384a3.9528,3.9528,0,0,1-1.03645,1.19388,2.26448,2.26448,0,0,1-1.34722.39523,3.77178,3.77178,0,0,1-2.11882-.898q-1.22065-.9042-3.04773-1.98832a24.3519,24.3519,0,0,0-4.3912-1.98458,18.88552,18.88552,0,0,0-6.22209-.902,18.18,18.18,0,0,0-6.06852.92892,12.98713,12.98713,0,0,0-4.395,2.514,10.32805,10.32805,0,0,0-2.67546,3.73112,11.82831,11.82831,0,0,0-.902,4.63286,8.5523,8.5523,0,0,0,1.566,5.27408,13.39636,13.39636,0,0,0,4.13022,3.57744,31.608,31.608,0,0,0,5.82675,2.56395q3.2529,1.08834,6.67109,2.25329,3.41438,1.16847,6.67507,2.6176a23.65609,23.65609,0,0,1,5.82288,3.68122,16.7643,16.7643,0,0,1,4.134,5.45823,18.17537,18.17537,0,0,1,1.56229,7.94556,25.62588,25.62588,0,0,1-1.69665,9.34655,21.47411,21.47411,0,0,1-4.9516,7.6,23.11439,23.11439,0,0,1-7.99921,5.086,29.40194,29.40194,0,0,1-10.77448,1.85385,32.87042,32.87042,0,0,1-13.44983-2.67523,31.49646,31.49646,0,0,1-10.333-7.23172l2.967-4.87089a3.89955,3.89955,0,0,1,1.02872-.97882,2.44076,2.44076,0,0,1,1.355-.39546,2.96474,2.96474,0,0,1,1.55842.55665c0.58734,0.36852,1.24753.83684,1.98832,1.401,0.74466,0.56438,1.58911,1.18217,2.54485,1.85408a20.85343,20.85343,0,0,0,3.255,1.85385,21.82116,21.82116,0,0,0,4.16091,1.401,22.51794,22.51794,0,0,0,5.23941.55665,19.54253,19.54253,0,0,0,6.51763-1.00576,13.80976,13.80976,0,0,0,4.84793-2.83266,12.386,12.386,0,0,0,3.04387-4.37188,14.65093,14.65093,0,0,0,1.05554-5.66556,9.48663,9.48663,0,0,0-1.56217-5.63862,13.0205,13.0205,0,0,0-4.10328-3.685,28.84323,28.84323,0,0,0-5.82675-2.514q-3.28189-1.03071-6.6712-2.11882a69.81608,69.81608,0,0,1-6.675-2.518,21.37254,21.37254,0,0,1-5.82675-3.70418,17.01345,17.01345,0,0,1-4.10328-5.69227,21.842,21.842,0,0,1,0-16.23669,19.85082,19.85082,0,0,1,4.55614-6.67109,22.161,22.161,0,0,1,7.35834-4.6598,26.85787,26.85787,0,0,1,10.03744-1.7503,31.91264,31.91264,0,0,1,11.57665,2.015,27.34136,27.34136,0,0,1,9.18537,5.823Z"/>
    <path d="M342.81806,392.39384a3.9528,3.9528,0,0,1-1.03645,1.19388,2.26448,2.26448,0,0,1-1.34722.39523,3.77178,3.77178,0,0,1-2.11882-.898q-1.22065-.9042-3.04773-1.98832a24.35191,24.35191,0,0,0-4.3912-1.98458,18.88552,18.88552,0,0,0-6.22209-.902,18.18,18.18,0,0,0-6.06852.92892,12.98713,12.98713,0,0,0-4.395,2.514,10.32805,10.32805,0,0,0-2.67546,3.73112,11.82831,11.82831,0,0,0-.902,4.63286,8.5523,8.5523,0,0,0,1.566,5.27408,13.39636,13.39636,0,0,0,4.13022,3.57744,31.608,31.608,0,0,0,5.82675,2.56395q3.2529,1.08834,6.67109,2.25329,3.41438,1.16847,6.67507,2.6176a23.65609,23.65609,0,0,1,5.82288,3.68122,16.7643,16.7643,0,0,1,4.134,5.45823,18.17538,18.17538,0,0,1,1.56229,7.94556,25.62587,25.62587,0,0,1-1.69665,9.34655,21.47411,21.47411,0,0,1-4.9516,7.6,23.11439,23.11439,0,0,1-7.99921,5.086A29.40194,29.40194,0,0,1,321.58,457.27476a32.90191,32.90191,0,0,1-13.45369-2.67523,31.5205,31.5205,0,0,1-10.32912-7.23172l2.967-4.87089a3.89955,3.89955,0,0,1,1.02872-.97882,2.43165,2.43165,0,0,1,1.355-.39546,2.97569,2.97569,0,0,1,1.55842.55665c0.58734,0.36852,1.24753.83684,1.98832,1.401,0.74465,0.56438,1.58911,1.18217,2.54485,1.85408a20.85343,20.85343,0,0,0,3.255,1.85385,21.82116,21.82116,0,0,0,4.16091,1.401,22.51794,22.51794,0,0,0,5.23941.55665,19.503,19.503,0,0,0,6.51377-1.00576,13.82739,13.82739,0,0,0,4.8518-2.83266,12.386,12.386,0,0,0,3.04387-4.37188,14.65093,14.65093,0,0,0,1.05554-5.66556,9.51394,9.51394,0,0,0-1.56217-5.63862,13.0205,13.0205,0,0,0-4.10328-3.685,28.84323,28.84323,0,0,0-5.82675-2.514q-3.28189-1.03071-6.6712-2.11882a69.81608,69.81608,0,0,1-6.675-2.518,21.37254,21.37254,0,0,1-5.82675-3.70418,17.01345,17.01345,0,0,1-4.10328-5.69227,21.842,21.842,0,0,1,0-16.23669,19.85082,19.85082,0,0,1,4.55614-6.67109,22.161,22.161,0,0,1,7.35834-4.6598,26.85787,26.85787,0,0,1,10.03744-1.7503,31.91264,31.91264,0,0,1,11.57665,2.015,27.34136,27.34136,0,0,1,9.18537,5.823Z"/>
    <polygon points="408.281 448.059 408.227 456.427 361.464 456.427 361.464 380.529 408.227 380.529 408.227 388.897 371.735 388.897 371.735 414.108 401.291 414.108 401.291 422.157 371.735 422.157 371.735 448.059 408.281 448.059"/>
    <polygon points="465.693 447.792 465.693 456.429 422.633 456.429 422.633 380.532 432.851 380.532 432.851 447.792 465.693 447.792"/>
    <path d="M542.75225,456.42761H534.8068a3.40412,3.40412,0,0,1-2.22249-.69089,4.20743,4.20743,0,0,1-1.27049-1.74631l-7.10111-18.32482H490.16206l-7.09724,18.32482a3.7302,3.7302,0,0,1-1.22059,1.69641,3.39828,3.39828,0,0,1-2.22249.74079H471.68l30.34273-75.89694h10.383ZM521.357,428.24973L509.4425,397.37366c-0.357-.92142-0.72556-1.98832-1.117-3.20517q-0.58142-1.82527-1.11318-3.89606a57.433,57.433,0,0,1-2.27227,7.15487L493.0178,428.24973H521.357Z"/>
    <polygon points="595.558 448.059 595.504 456.427 548.741 456.427 548.741 380.529 595.504 380.529 595.504 388.897 559.012 388.897 559.012 414.108 588.568 414.108 588.568 422.157 559.012 422.157 559.012 448.059 595.558 448.059"/>
    <path d="M666.00361,456.42807h-9.10852a4.49249,4.49249,0,0,1-4.134-2.17247l-19.70273-27.11847a5.84947,5.84947,0,0,0-1.93456-1.82714,7.05276,7.05276,0,0,0-3.20118-.55665h-7.78813v31.67472H609.91271V380.5309h21.44916a46.72458,46.72458,0,0,1,12.448,1.45862,23.70458,23.70458,0,0,1,8.65555,4.20694,16.902,16.902,0,0,1,5.06288,6.64813,22.22851,22.22851,0,0,1,1.639,8.7133,21.81157,21.81157,0,0,1-1.27049,7.51941,19.88377,19.88377,0,0,1-3.681,6.27586,21.93814,21.93814,0,0,1-5.88051,4.7404,28.75033,28.75033,0,0,1-7.865,2.96339,10.1933,10.1933,0,0,1,3.38943,3.23562Zm-35.06391-39.14048a26.05381,26.05381,0,0,0,7.86485-1.08612,16.1299,16.1299,0,0,0,5.71921-3.07069,12.86221,12.86221,0,0,0,3.47-4.74063,15.50983,15.50983,0,0,0,1.163-6.09148q0-6.78237-4.44485-10.22182-4.45633-3.44284-13.35-3.443H620.13452v28.6537h10.80517Z"/>
    <path d="M732.68028,448.27213a21.17517,21.17517,0,0,0,8.42138-1.58888,17.65,17.65,0,0,0,6.27586-4.4527,19.5273,19.5273,0,0,0,3.92288-6.83227,27.0306,27.0306,0,0,0,1.34734-8.73625V380.53183h10.2217V426.662a34.524,34.524,0,0,1-2.092,12.17922,28.25713,28.25713,0,0,1-5.98406,9.71882,27.32821,27.32821,0,0,1-9.50773,6.437,35.25395,35.25395,0,0,1-25.207,0,27.59835,27.59835,0,0,1-9.53842-6.437,28.14378,28.14378,0,0,1-6.011-9.71882,34.61124,34.61124,0,0,1-2.092-12.17921V380.53183H712.6628v46.07256a26.94909,26.94909,0,0,0,1.34734,8.74,19.51545,19.51545,0,0,0,3.919,6.83625,17.96124,17.96124,0,0,0,6.30268,4.47566,21.125,21.125,0,0,0,8.44844,1.61582"/>
    <path d="M842.79105,380.53v75.89718h-5.13586a4.3814,4.3814,0,0,1-2.03823-.42217,5.14977,5.14977,0,0,1-1.61605-1.43168L790.09333,397.373c0.06888,0.883.12651,1.74655,0.1572,2.59487q0.052,1.26686.05388,2.38379v54.07552h-9.005V380.53h5.297a7.12616,7.12616,0,0,1,1.16671.08083,3.15438,3.15438,0,0,1,.84457.261,3.23512,3.23512,0,0,1,.74454.53345,7.74249,7.74249,0,0,1,.79467.87527l43.90782,57.14644c-0.07309-.92142-0.13448-1.80793-0.18813-2.67546-0.0499-.86753-0.08059-1.68517-0.08059-2.46438V380.53h9.005Z"/>
    <rect x="862.17364" y="380.52832" width="10.27547" height="75.89718"/>
    <path d="M961.96162,418.50537a43.81,43.81,0,0,1-2.70217,15.64935,35.9099,35.9099,0,0,1-7.62694,12.26379,34.12581,34.12581,0,0,1-11.83764,7.96852,42.55667,42.55667,0,0,1-30.53472,0,34.17657,34.17657,0,0,1-11.81468-7.96852,35.905,35.905,0,0,1-7.6232-12.26379,46.67708,46.67708,0,0,1,0-31.30222,36.15576,36.15576,0,0,1,7.6232-12.287,34.25312,34.25312,0,0,1,11.81468-8.02217,42.18578,42.18578,0,0,1,30.53472,0,34.20138,34.20138,0,0,1,11.83764,8.02217,36.16065,36.16065,0,0,1,7.62694,12.287,43.845,43.845,0,0,1,2.70217,15.65287m-10.54395,0a38.591,38.591,0,0,0-1.904-12.55148,26.65956,26.65956,0,0,0-5.40059-9.40043,23.51173,23.51173,0,0,0-8.47527-5.90734,30.86,30.86,0,0,0-22.19768,0,23.6839,23.6839,0,0,0-8.49448,5.90734,26.253,26.253,0,0,0-5.42754,9.40043,42.07689,42.07689,0,0,0,0,25.07626,26.2288,26.2288,0,0,0,5.42754,9.37349,23.383,23.383,0,0,0,8.49448,5.88063,31.24083,31.24083,0,0,0,22.19768,0,23.21432,23.21432,0,0,0,8.47527-5.88063,26.63568,26.63568,0,0,0,5.40059-9.37349,38.34225,38.34225,0,0,0,1.904-12.52478"/>
    <path d="M1038.11956,380.53v75.89718h-5.13984a4.38272,4.38272,0,0,1-2.03823-.42217,5.15176,5.15176,0,0,1-1.61582-1.43168L985.42183,397.373q0.10332,1.3245.1572,2.59487c0.03069,0.84457.05388,1.639,0.05388,2.38379v54.07552h-9.005V380.53h5.297a7.11293,7.11293,0,0,1,1.163.08083,3.1821,3.1821,0,0,1,.84832.261,3.30591,3.30591,0,0,1,.74079.53345,7.7425,7.7425,0,0,1,.79467.87527l43.90759,57.14644c-0.07286-.92142-0.13424-1.80793-0.18813-2.67546-0.0499-.86753-0.07661-1.68517-0.07661-2.46438V380.53h9.005Z"/>
    <path class="a" d="M660.35362,220.85119a34.22238,34.22238,0,0,0-5.02071-4.14158l2.28-1.83089a34.15951,34.15951,0,0,0-48.34108,0l2.326,1.86931a34.21057,34.21057,0,0,0-4.96683,4.10316l3.86138,3.10536a28.657,28.657,0,0,1,7.90714-5.61168l-1.80406-3.31645a28.71205,28.71205,0,0,1,33.7666.0499l-1.77712,3.26655a28.73178,28.73178,0,0,1,7.911,5.61168Z"/>
    <rect class="a" x="617.90407" y="223.32962" width="31.14502" height="2.93645"/>
    <polygon class="a" points="695.001 233.545 695.001 42.776 381.24 42.776 381.24 356.54 537.529 356.54 537.529 278.774 603.696 272.532 603.696 356.54 604.437 356.54 608.398 356.54 609.569 356.54 609.569 271.979 632.845 269.784 632.841 269.746 634.173 269.746 634.177 269.746 634.173 269.784 657.319 271.968 657.319 356.54 658.555 356.54 662.512 356.54 663.196 356.54 663.196 272.521 695.001 275.522 695.001 270.03 640.986 264.921 640.986 262.875 636.914 262.875 636.914 261.42 635.041 261.42 634.173 261.42 630.101 261.42 630.101 262.875 626.028 262.875 626.028 264.921 537.564 273.296 537.564 252.365 559.282 248.93 559.282 235.718 582.742 231.791 582.742 217.743 606.145 212.887 606.145 184.92 633.505 167.079 660.355 184.92 660.355 212.887 684.61 217.808 684.61 231.791 695.001 233.545"/>
    <rect class="a" x="620.10348" y="228.39262" width="26.81133" height="26.81133"/>
  </g>
  <line class="b" x1="38.12016" y1="498.11408" x2="1038.12096" y2="498.11408"/>
  <g>
    <path class="c" d="M331.09037,545.93764a2.02193,2.02193,0,0,1-.53711.61816,1.17206,1.17206,0,0,1-.70117.20605,1.96153,1.96153,0,0,1-1.09961-.4668q-0.63281-.46729-1.58105-1.03125a12.70335,12.70335,0,0,0-2.2832-1.03125,9.81908,9.81908,0,0,0-3.23047-.46777,9.42448,9.42448,0,0,0-3.14941.48145,6.73987,6.73987,0,0,0-2.28223,1.30566,5.36269,5.36269,0,0,0-1.38867,1.93945,6.1529,6.1529,0,0,0-.46777,2.40625,4.44764,4.44764,0,0,0,.81152,2.73633,6.99193,6.99193,0,0,0,2.14453,1.85547,16.389,16.389,0,0,0,3.02539,1.334q1.69189,0.564,3.46484,1.16895,1.77393,0.605,3.46484,1.36133a12.16813,12.16813,0,0,1,3.02539,1.91113,8.71291,8.71291,0,0,1,2.14453,2.832,9.42923,9.42923,0,0,1,.81152,4.125,13.30207,13.30207,0,0,1-.87988,4.85449,11.193,11.193,0,0,1-2.57129,3.94629,12.02539,12.02539,0,0,1-4.15234,2.63965,15.27351,15.27351,0,0,1-5.59668.96289,17.04435,17.04435,0,0,1-6.98437-1.38965,16.37366,16.37366,0,0,1-5.3623-3.75293l1.54-2.53027a2.03109,2.03109,0,0,1,.53613-0.50879,1.25227,1.25227,0,0,1,.70117-0.20605,1.55689,1.55689,0,0,1,.81055.28809q0.4541,0.29,1.03125.72949,0.57861,0.43945,1.32031.96191a10.8469,10.8469,0,0,0,1.69141.96289,11.455,11.455,0,0,0,2.15918.72852,11.75338,11.75338,0,0,0,2.72168.28906,10.1521,10.1521,0,0,0,3.38281-.52246,7.184,7.184,0,0,0,2.5166-1.47168,6.37473,6.37473,0,0,0,1.58105-2.26855,7.58737,7.58737,0,0,0,.5498-2.94238,4.9366,4.9366,0,0,0-.81152-2.92871,6.73145,6.73145,0,0,0-2.13086-1.91113,14.78227,14.78227,0,0,0-3.02539-1.30664q-1.70508-.53613-3.46484-1.09961a36.81726,36.81726,0,0,1-3.46484-1.30664,11.21654,11.21654,0,0,1-3.02539-1.9248,8.844,8.844,0,0,1-2.13086-2.95605,11.33164,11.33164,0,0,1,0-8.42871,10.31614,10.31614,0,0,1,2.36523-3.46484,11.545,11.545,0,0,1,3.82227-2.4209,13.96007,13.96007,0,0,1,5.21094-.90723,16.577,16.577,0,0,1,6.00879,1.04492,14.2008,14.2008,0,0,1,4.77148,3.02539Z"/>
    <path class="c" d="M367.41654,544.2599H354.65677v34.9248h-5.30762V544.2599H336.562v-4.48242h30.85449v4.48242Z"/>
    <path class="c" d="M388.45463,574.94936a11.00742,11.00742,0,0,0,4.37207-.82422,9.18424,9.18424,0,0,0,3.25879-2.31055,10.10383,10.10383,0,0,0,2.03516-3.54785,14.01005,14.01005,0,0,0,.70117-4.53711V539.77748h5.30762v23.95215a17.98637,17.98637,0,0,1-1.08594,6.3252,14.70393,14.70393,0,0,1-3.10742,5.0459,14.21146,14.21146,0,0,1-4.93652,3.3418,18.30638,18.30638,0,0,1-13.08984,0,14.35044,14.35044,0,0,1-4.9502-3.3418,14.55884,14.55884,0,0,1-3.12109-5.0459,17.96449,17.96449,0,0,1-1.08691-6.3252V539.77748h5.30762v23.9248a14.03653,14.03653,0,0,0,.70117,4.53711,10.10383,10.10383,0,0,0,2.03516,3.54785,9.28718,9.28718,0,0,0,3.27246,2.32324A10.94153,10.94153,0,0,0,388.45463,574.94936Z"/>
    <path class="c" d="M447.854,559.49428a22.19876,22.19876,0,0,1-1.40234,8.05762,17.86977,17.86977,0,0,1-3.96,6.21484,17.62868,17.62868,0,0,1-6.14648,4.002,21.43356,21.43356,0,0,1-7.93359,1.416H413.69877V539.77748h14.71289a21.43356,21.43356,0,0,1,7.93359,1.416,17.53565,17.53565,0,0,1,6.14648,4.01465,18.01394,18.01394,0,0,1,3.96,6.22949A22.19715,22.19715,0,0,1,447.854,559.49428Zm-5.47266,0a19.76856,19.76856,0,0,0-.99023-6.48926,13.65434,13.65434,0,0,0-2.80469-4.83984,11.96615,11.96615,0,0,0-4.40039-3.02539,15.2875,15.2875,0,0,0-5.77441-1.04492h-9.37793v30.77246h9.37793a15.2875,15.2875,0,0,0,5.77441-1.04492,12.02792,12.02792,0,0,0,4.40039-3.01172,13.51588,13.51588,0,0,0,2.80469-4.82617A19.77045,19.77045,0,0,0,442.38138,559.49428Z"/>
    <path class="c" d="M479.83646,574.84l-0.02734,4.34473h-24.2832V539.77748h24.2832v4.34473H460.86088v13.08984h15.3457v4.17969h-15.3457V574.84h18.97559Z"/>
    <path class="c" d="M519.21634,539.77748v39.40723h-2.667a2.295,2.295,0,0,1-1.05957-.21973,2.67479,2.67479,0,0,1-.83887-0.74316L491.854,548.5226q0.0542,0.687.082,1.34668,0.02783,0.66064.02734,1.23828v28.07715h-4.6748V539.77748h2.75a3.78527,3.78527,0,0,1,.60547.041,1.5264,1.5264,0,0,1,.43945.1377,1.70168,1.70168,0,0,1,.38574.27441,4.4176,4.4176,0,0,1,.41211.4541l22.79785,29.67285q-0.05566-.71484-0.09668-1.38867t-0.041-1.2793V539.77748h4.6748Z"/>
    <path class="c" d="M555.92826,544.2599H543.16849v34.9248h-5.30762V544.2599H525.07377v-4.48242h30.85449v4.48242Z"/>
    <path class="c" d="M594.34623,545.93764a2.02193,2.02193,0,0,1-.53711.61816,1.17206,1.17206,0,0,1-.70117.20605,1.96153,1.96153,0,0,1-1.09961-.4668q-0.63281-.46729-1.58105-1.03125a12.70335,12.70335,0,0,0-2.2832-1.03125,9.81908,9.81908,0,0,0-3.23047-.46777,9.42448,9.42448,0,0,0-3.14941.48145,6.73987,6.73987,0,0,0-2.28223,1.30566,5.36268,5.36268,0,0,0-1.38867,1.93945,6.1529,6.1529,0,0,0-.46777,2.40625,4.44764,4.44764,0,0,0,.81152,2.73633,6.99193,6.99193,0,0,0,2.14453,1.85547,16.389,16.389,0,0,0,3.02539,1.334q1.69189,0.564,3.46484,1.16895,1.77393,0.605,3.46484,1.36133a12.16813,12.16813,0,0,1,3.02539,1.91113,8.71291,8.71291,0,0,1,2.14453,2.832,9.42923,9.42923,0,0,1,.81152,4.125,13.30207,13.30207,0,0,1-.87988,4.85449,11.193,11.193,0,0,1-2.57129,3.94629,12.02539,12.02539,0,0,1-4.15234,2.63965,15.27351,15.27351,0,0,1-5.59668.96289,17.04435,17.04435,0,0,1-6.98437-1.38965,16.37366,16.37366,0,0,1-5.3623-3.75293l1.54-2.53027a2.03109,2.03109,0,0,1,.53613-0.50879,1.25227,1.25227,0,0,1,.70117-0.20605,1.55689,1.55689,0,0,1,.81055.28809q0.4541,0.29,1.03125.72949,0.57861,0.43945,1.32031.96191a10.8469,10.8469,0,0,0,1.69141.96289,11.455,11.455,0,0,0,2.15918.72852,11.75338,11.75338,0,0,0,2.72168.28906,10.1521,10.1521,0,0,0,3.38281-.52246,7.184,7.184,0,0,0,2.5166-1.47168,6.37473,6.37473,0,0,0,1.58105-2.26855,7.58737,7.58737,0,0,0,.5498-2.94238,4.9366,4.9366,0,0,0-.81152-2.92871,6.73145,6.73145,0,0,0-2.13086-1.91113,14.78227,14.78227,0,0,0-3.02539-1.30664q-1.70508-.53613-3.46484-1.09961a36.81728,36.81728,0,0,1-3.46484-1.30664,11.21655,11.21655,0,0,1-3.02539-1.9248,8.844,8.844,0,0,1-2.13086-2.95605,11.33164,11.33164,0,0,1,0-8.42871,10.31615,10.31615,0,0,1,2.36523-3.46484,11.545,11.545,0,0,1,3.82227-2.4209,13.96007,13.96007,0,0,1,5.21094-.90723,16.577,16.577,0,0,1,6.00879,1.04492,14.2008,14.2008,0,0,1,4.77148,3.02539Z"/>
    <path class="c" d="M628.33548,574.84l-0.02734,4.34473h-24.2832V539.77748h24.2832v4.34473H609.3599v13.08984h15.3457v4.17969H609.3599V574.84h18.97559Z"/>
    <path class="c" d="M667.71537,539.77748v39.40723h-2.667a2.295,2.295,0,0,1-1.05957-.21973,2.67479,2.67479,0,0,1-.83887-0.74316L640.35306,548.5226q0.0542,0.687.082,1.34668,0.02783,0.66064.02734,1.23828v28.07715h-4.6748V539.77748h2.75a3.78527,3.78527,0,0,1,.60547.041,1.5264,1.5264,0,0,1,.43945.1377,1.70168,1.70168,0,0,1,.38574.27441,4.41759,4.41759,0,0,1,.41211.4541l22.79785,29.67285q-0.05566-.71484-0.09668-1.38867t-0.041-1.2793V539.77748h4.6748Z"/>
    <path class="c" d="M709.81791,579.18471h-4.125a1.77337,1.77337,0,0,1-1.15527-.35742,2.19359,2.19359,0,0,1-.66016-0.90723l-3.68457-9.51562H682.51029l-3.68555,9.51563a1.92611,1.92611,0,0,1-.63184.87988,1.75863,1.75863,0,0,1-1.15527.38477h-4.125l15.75781-39.40723h5.38965Zm-11.11035-14.62988-6.1875-16.03223q-0.27539-.71484-0.57715-1.66406-0.30322-.94922-0.57812-2.02148a29.92669,29.92669,0,0,1-1.18262,3.71289l-6.1875,16.00488h14.71289Z"/>
    <path class="c" d="M737.78373,544.2599H725.024v34.9248h-5.30762V544.2599H706.92923v-4.48242h30.85449v4.48242Z"/>
    <path class="c" d="M767.92435,574.84l-0.02734,4.34473h-24.2832V539.77748H767.897v4.34473H748.94877v13.08984h15.3457v4.17969h-15.3457V574.84h18.97559Z"/>
  </g>
</svg>
